<?xml version="1.0" encoding="utf-8"?>
<!-- Generator: Adobe Illustrator 24.3.0, SVG Export Plug-In . SVG Version: 6.00 Build 0)  -->
<svg version="1.1" id="Layer_1" xmlns="http://www.w3.org/2000/svg" xmlns:xlink="http://www.w3.org/1999/xlink" x="0px" y="0px"
	 viewBox="0 0 800 800" style="enable-background:new 0 0 800 800;" xml:space="preserve">
<style type="text/css">
	.st0{fill:#6366F1;}
</style>
<path class="st0" d="M225.1,82.9c-8.2,0-16,3.6-21.3,9.9L6.7,324.9c-10,11.8-8.6,29.5,3.2,39.5c5.1,4.3,11.5,6.7,18.1,6.7l744-0.5
	c15.5,0,28-12.5,28-28c0-6.6-2.4-13.1-6.7-18.1L596.7,92.7c-5.3-6.3-13.1-9.9-21.3-9.9H225.1z M719.3,410.5l-73.4,0.1l65.7,77.4
	l-623,0.4l65.8-77.5L80.8,411L6.7,498.3c-10,11.8-8.6,29.5,3.2,39.5c5.1,4.3,11.5,6.7,18.1,6.7l744-0.5c15.5,0,28-12.6,28-28
	c0-6.6-2.4-13-6.7-18.1L719.3,410.5z M719.3,583.2l-73.4,0.1l65.7,77.4l-623,0.4l65.8-77.5l-73.5,0.1L6.7,671
	c-10,11.8-8.6,29.5,3.2,39.5c5.1,4.3,11.5,6.7,18.1,6.7l744-0.5c15.5,0,28-12.5,28-28c0-6.6-2.4-13.1-6.7-18.1L719.3,583.2z"/>
</svg>
