<?xml version="1.0" encoding="utf-8"?>
<!-- Generator: Adobe Illustrator 24.3.0, SVG Export Plug-In . SVG Version: 6.00 Build 0)  -->
<svg version="1.1" id="Layer_1" xmlns="http://www.w3.org/2000/svg" xmlns:xlink="http://www.w3.org/1999/xlink" x="0px" y="0px"
	 viewBox="0 0 81.1 18" style="enable-background:new 0 0 81.1 18;" xml:space="preserve">
<style type="text/css">
	.st0{clip-path:url(#SVGID_2_);}
	.st1{fill:#6C737F;}
</style>
<g>
	<g>
		<g>
			<g>
				<defs>
					<rect id="SVGID_1_" x="50.3" y="3.5" width="27.9" height="11"/>
				</defs>
				<clipPath id="SVGID_2_">
					<use xlink:href="#SVGID_1_"  style="overflow:visible;"/>
				</clipPath>
				<g class="st0">
					<path class="st1" d="M50.7,11.2l-0.5-0.1c0.1-0.4,0.1-0.9,0.3-1.2c0.5-0.9,1-1.7,1.7-2.4c2.2-2,4.9-3.3,7.8-3.8
						c0.8-0.2,1.6-0.2,2.4-0.1c5.3,0.8,9.7,3,13.1,7.2c0.2,0.2,0.3,0.5,0.5,0.8c0.8-1.4,0.3-3.1,1.9-3.7c0.2,0.2,0.3,0.2,0.3,0.3
						c0,1.9-0.3,3.8-1,5.6c-0.3,0.7-0.8,0.8-1.5,0.4c-2-1.1-4-2.5-6.3-3.2c-0.2-0.1-0.3-0.4-0.3-0.5c0-0.2,0.3-0.4,0.4-0.4
						c0.4,0,0.8,0,1.2,0.1c0.9,0.3,1.7,0.8,2.6,1.2c0.3,0.2,0.6,0.3,0.9,0.4c-0.5-0.9-1.2-1.7-1.9-2.3c-2.6-2.2-5.6-3.5-8.9-4.2
						C62.2,5,60.9,5,59.8,5.2c-3.3,0.8-6.2,2.2-8.3,5.1C51.3,10.7,51,10.9,50.7,11.2L50.7,11.2z"/>
				</g>
			</g>
		</g>
	</g>
	<g>
		<path class="st1" d="M4.8,12.6c-0.4-0.2-0.8-0.5-1-1c-0.3-0.4-0.4-0.9-0.4-1.5c0-0.4,0.1-0.8,0.2-1.3C3.7,8.5,3.8,8.1,4,7.7L4.7,8
			c-0.4,0.8-0.6,1.5-0.6,2.1c0,0.6,0.2,1.1,0.6,1.5C5,11.9,5.6,12,6.3,12c0.5,0,0.9-0.1,1.2-0.2s0.6-0.3,0.9-0.5s0.4-0.4,0.4-0.7
			c0,0-0.1-0.1-0.2-0.2c-0.2-0.1-0.5-0.2-0.9-0.3C7.1,10,6.7,9.8,6.5,9.7S6.2,9.2,6.2,8.9c0-0.5,0.1-1,0.4-1.4
			c0.3-0.4,0.6-0.8,1-1.1C8,6.2,8.4,6.1,8.9,6.1c0.2,0,0.4,0,0.5,0.1s0.3,0.1,0.4,0.2L9.6,7.1C9.4,7,9.2,7,8.9,7C8.6,7,8.3,7,8,7.2
			C7.7,7.4,7.4,7.6,7.3,7.9C7.1,8.2,7,8.4,7,8.7C7,8.8,7.1,8.9,7.2,9c0.1,0.1,0.4,0.2,0.9,0.3c0.4,0.1,0.7,0.2,1,0.3
			C9.2,9.8,9.4,9.9,9.5,10c0.1,0.1,0.1,0.3,0.1,0.4c0,0.4-0.1,0.8-0.4,1.2c-0.3,0.4-0.7,0.7-1.2,1s-1.1,0.4-1.7,0.4
			C5.7,12.9,5.2,12.8,4.8,12.6z"/>
		<path class="st1" d="M11.5,10.5c-0.3-0.1-0.6-0.3-0.9-0.5L11,9.3c0.3,0.2,0.5,0.3,0.8,0.4c0.2,0.1,0.5,0.1,0.9,0.1
			c0.4,0,0.8-0.1,1-0.2c0.3-0.1,0.6-0.3,0.8-0.5l0.4,0.6c-0.2,0.2-0.4,0.3-0.5,0.5c-0.2,0.1-0.4,0.2-0.7,0.4c-0.3,0.1-0.6,0.2-1,0.2
			C12.2,10.7,11.8,10.6,11.5,10.5z M14.9,10.3c-0.3-0.2-0.6-0.6-0.8-1L12.7,6l0.7-0.4l1.4,3.2c0.1,0.3,0.3,0.6,0.5,0.7
			c0.2,0.1,0.4,0.2,0.7,0.2h0.1l0,0.4l0,0.5H16C15.6,10.6,15.2,10.5,14.9,10.3z"/>
		<path class="st1" d="M16,9.7h0.2c0.9,0,1.6-0.1,2.2-0.4c0.6-0.3,1-0.5,1.3-0.9c0.3-0.3,0.5-0.6,0.5-0.8c-0.1-0.1-0.2-0.3-0.5-0.3
			c-0.2-0.1-0.5-0.1-0.8-0.1c-0.3,0-0.6,0-0.8,0.1s-0.5,0.2-0.7,0.3c0.4,0.5,0.8,0.9,1.2,1.2s0.8,0.5,1.2,0.6
			c0.4,0.1,0.9,0.2,1.5,0.2h0.2l0,0.4l0,0.5h-0.2c-0.7,0-1.3-0.1-1.8-0.3c-0.5-0.2-1-0.5-1.4-0.9c-0.4-0.4-0.9-0.9-1.5-1.6l0-0.6
			c0.3-0.3,0.6-0.5,1-0.6c0.4-0.1,0.8-0.2,1.3-0.2c0.5,0,0.9,0.1,1.3,0.3s0.6,0.4,0.7,0.7c0,0.1,0,0.1,0,0.2c0,0.4-0.2,0.8-0.6,1.3
			c-0.4,0.5-1,0.9-1.7,1.3c-0.7,0.3-1.5,0.5-2.4,0.5H16V9.7z"/>
		<path class="st1" d="M21.5,9.7H22c0.5,0,0.9-0.1,1.2-0.2c0.2-0.1,0.4-0.4,0.4-0.6c0-0.2-0.1-0.5-0.2-1S23,7.2,23,7l0.7-0.4
			c0.1,0.3,0.3,0.6,0.4,1.1s0.2,0.8,0.2,1.2c0,0.6-0.2,1-0.6,1.3c-0.4,0.3-1,0.4-1.7,0.4h-0.5V9.7z M22.2,11.6l0.7,0.7L22.2,13
			l-0.7-0.7L22.2,11.6z"/>
		<path class="st1" d="M30.5,10.1c-0.5,0-1-0.1-1.3-0.4s-0.5-0.6-0.5-1c0-0.9,0.8-1.7,2.5-2.2l0.2,0.8c-0.5,0.1-1,0.3-1.4,0.6
			s-0.6,0.5-0.6,0.7c0,0.2,0.1,0.4,0.3,0.5c0.2,0.1,0.4,0.2,0.8,0.2c0.3,0,0.7-0.1,1.1-0.2l0.2,0.9C31.2,10.1,30.8,10.1,30.5,10.1z
			 M31.7,10.2c-0.3-0.3-0.5-0.8-0.5-1.6L31,7.1L30.9,6l0.8-0.2C31.8,7.1,31.9,8,32,8.5c0,0.3,0.1,0.6,0.1,0.8s0.2,0.3,0.3,0.4
			c0.1,0.1,0.3,0.1,0.5,0.1h0.1l0.1,0.4l-0.1,0.5h-0.1C32.4,10.6,32,10.5,31.7,10.2z"/>
		<path class="st1" d="M33,9.7L33,9.7c0.6,0,1,0,1.3-0.1c0.3,0,0.5-0.1,0.6-0.2c0.1-0.1,0.2-0.2,0.3-0.4c0-0.1,0.1-0.3,0.1-0.4
			c0-0.2,0-0.6-0.1-1.1l0.7-0.1C35.9,7.8,36,8.4,36,9c0.1,0.5,0.4,0.7,0.9,0.7H37l0,0.4l0,0.5h-0.1c-0.3,0-0.6-0.1-0.9-0.3
			c-0.2-0.2-0.4-0.4-0.5-0.8l0.2,0c-0.1,0.3-0.2,0.5-0.4,0.6c-0.2,0.1-0.5,0.3-0.8,0.3c-0.3,0.1-0.8,0.1-1.4,0.1H33V9.7z M34,5.2
			l0.7,0.7L34,6.6l-0.7-0.7L34,5.2z M35.7,5.2l0.7,0.7l-0.7,0.7L35,5.9L35.7,5.2z"/>
		<path class="st1" d="M36.9,9.7h0.2c1.6,0,2.4-0.3,2.4-1c0-0.3-0.2-0.8-0.6-1.2c-0.4-0.5-0.9-1-1.6-1.6l0.1-0.8l3.6-1.6l0.3,0.7
			l-3.1,1.4c0.5,0.5,1,1,1.4,1.6c0.4,0.6,0.6,1.1,0.6,1.6c0,0.2,0,0.3-0.1,0.5c-0.2,0.4-0.5,0.8-1,1c-0.5,0.2-1.2,0.3-2,0.3h-0.2
			V9.7z M41.2,10.4c-0.3-0.2-0.6-0.5-0.9-0.9c-0.3-0.4-0.6-0.9-1-1.6l0.4-0.5c0.4,0.6,0.7,1.1,0.9,1.4s0.5,0.6,0.7,0.7
			c0.2,0.1,0.5,0.2,0.8,0.2h0.1l0,0.4l0,0.5h-0.1C41.8,10.6,41.5,10.5,41.2,10.4z"/>
		<path class="st1" d="M42.2,9.7h0.5c0.5,0,0.9-0.1,1.2-0.2c0.2-0.1,0.4-0.4,0.4-0.6c0-0.2-0.1-0.5-0.2-1c-0.1-0.4-0.2-0.7-0.3-0.9
			l0.7-0.4c0.1,0.3,0.3,0.6,0.4,1.1C44.9,8.2,45,8.6,45,8.9c0,0.6-0.2,1-0.6,1.3c-0.4,0.3-1,0.4-1.7,0.4h-0.5V9.7z M43.8,4.6
			l0.7,0.7L43.8,6l-0.7-0.7L43.8,4.6z"/>
	</g>
</g>
</svg>
